{"asset":{"generator":"glTF-Transform v3.5.1","version":"2.0","extras":{"author":"Paul (https://sketchfab.com/paul_paul_paul)","license":"CC-BY-4.0 (http://creativecommons.org/licenses/by/4.0/)","source":"https://sketchfab.com/3d-models/free-skybox-tropical-island-ccc22ba1a2af4e40b467ce1e21215caa","title":"FREE - SkyBox Tropical Island"}},"accessors":[{"type":"VEC3","componentType":5126,"count":2143,"max":[0.9999998807907104,1,1],"min":[-0.9999997019767761,-0.9999997615814209,-1],"bufferView":0,"byteOffset":0},{"type":"VEC3","componentType":5126,"count":2143,"bufferView":0,"byteOffset":12},{"type":"VEC2","componentType":5126,"count":2143,"bufferView":0,"byteOffset":24},{"type":"SCALAR","componentType":5125,"count":11904,"bufferView":1,"byteOffset":0}],"bufferViews":[{"buffer":0,"byteOffset":0,"byteLength":68576,"byteStride":32,"target":34962},{"buffer":0,"byteOffset":68576,"byteLength":47616,"target":34963}],"samplers":[{"magFilter":9729,"minFilter":9987,"wrapS":10497,"wrapT":10497}],"textures":[{"source":0,"sampler":0}],"images":[{"mimeType":"image/jpeg","uri":"textures/Scene_-_Root_diffuse.jpeg"}],"buffers":[{"uri":"scene.bin","byteLength":116192}],"materials":[{"name":"Scene_-_Root","pbrMetallicRoughness":{"roughnessFactor":0.6,"metallicFactor":0,"baseColorTexture":{"index":0}},"emissiveFactor":[1,1,1],"emissiveTexture":{"index":0},"extensions":{"KHR_materials_ior":{"ior":1000},"KHR_materials_specular":{"specularColorFactor":[0,0,0]}}}],"meshes":[{"name":"Sphere__0","primitives":[{"attributes":{"NORMAL":1,"POSITION":0,"TEXCOORD_0":2},"mode":4,"material":0,"indices":3}]}],"nodes":[{"name":"Sketchfab_model","rotation":[-0.7071067811865475,0,0,0.7071067811865476],"children":[1]},{"name":"40f2a9f6db434c149d208060c551790b.fbx","rotation":[0.7071067811865475,0,0,0.7071067811865476],"scale":[0.009999999776482582,0.009999999776482582,0.009999999776482582],"children":[2]},{"name":"RootNode","children":[3]},{"name":"Sphere","rotation":[-0.7071068387877038,0,0,0.7071067235853866],"scale":[50000,50000.00000000001,50000.00000000001],"children":[4]},{"name":"Sphere__0","mesh":0}],"scenes":[{"name":"Sketchfab_Scene","nodes":[0]}],"scene":0,"extensionsUsed":["KHR_materials_ior","KHR_materials_specular"]}